HIERARCHY
ROOT hip
{
	OFFSET 0.000000 0.000000 0.000000
	CHANNELS 6 Xposition Yposition Zposition Xrotation Zrotation Yrotation 
	JOINT abdomen
	{
		OFFSET 0.000000 3.422050 0.000000
		CHANNELS 3 Xrotation Zrotation Yrotation 
		JOINT chest
		{
			OFFSET 0.000000 8.486693 -0.684411
			CHANNELS 3 Xrotation Zrotation Yrotation 
			JOINT neck
			{
				OFFSET 0.000000 10.266162 -0.273764
				CHANNELS 3 Xrotation Zrotation Yrotation 
				JOINT head
				{
					OFFSET 0.000000 3.148285 0.000000
					CHANNELS 3 Xrotation Zrotation Yrotation 
					End Site
					{
						OFFSET 0.000000 3.148289 0.000000
					}
				}
			}
			JOINT lCollar
			{
				OFFSET 3.422053 6.707223 -0.821293
				CHANNELS 3 Yrotation Zrotation Xrotation 
				JOINT lShldr
				{
					OFFSET 3.285171 0.000000 0.000000
					CHANNELS 3 Zrotation Yrotation Xrotation 
					JOINT lForeArm
					{
						OFFSET 10.129278 0.000000 0.000000
						CHANNELS 3 Yrotation Zrotation Xrotation 
						JOINT lHand
						{
							OFFSET 8.486692 0.000000 0.000000
							CHANNELS 3 Zrotation Yrotation Xrotation 
							End Site
							{
								OFFSET 4.106464 0.000000 0.000000
							}
						}
					}
				}
			}
			JOINT rCollar
			{
				OFFSET -3.558935 6.707223 -0.821293
				CHANNELS 3 Yrotation Zrotation Xrotation 
				JOINT rShldr
				{
					OFFSET -3.148289 0.000000 0.000000
					CHANNELS 3 Zrotation Yrotation Xrotation 
					JOINT rForeArm
					{
						OFFSET -10.266159 0.000000 0.000000
						CHANNELS 3 Yrotation Zrotation Xrotation 
						JOINT rHand
						{
							OFFSET -8.349810 0.000000 0.000000
							CHANNELS 3 Zrotation Yrotation Xrotation 
							End Site
							{
								OFFSET -4.106464 0.000000 0.000000
							}
						}
					}
				}
			}
		}
	}
	JOINT lThigh
	{
		OFFSET 5.338403 -1.642589 1.368821
		CHANNELS 3 Xrotation Zrotation Yrotation 
		JOINT lShin
		{
			OFFSET -2.053232 -20.121670 0.000000
			CHANNELS 3 Xrotation Zrotation Yrotation 
			JOINT lFoot
			{
				OFFSET 0.000000 -19.300380 -1.231939
				CHANNELS 3 Xrotation Yrotation Zrotation 
				End Site
				{
					OFFSET 0.000000 -2.463878 4.653993
				}
			}
		}
	}
	JOINT rThigh
	{
		OFFSET -5.338403 -1.642589 1.368821
		CHANNELS 3 Xrotation Zrotation Yrotation 
		JOINT rShin
		{
			OFFSET 2.053232 -20.121670 0.000000
			CHANNELS 3 Xrotation Zrotation Yrotation 
			JOINT rFoot
			{
				OFFSET 0.000000 -19.300380 -1.231939
				CHANNELS 3 Xrotation Yrotation Zrotation 
				End Site
				{
					OFFSET 0.000000 -2.463878 4.653993
				}
			}
		}
	}
}
MOTION
Frames: 10
Frame Time: 0.033264
0.000000 43.528500 0.000000 0.000000 0.000000 0.000000 0.000000 0.000000 0.000000 0.000000 0.000000 0.000000 0.000000 0.000000 0.000000 0.000000 0.000000 0.000000 0.000000 0.000000 0.000000 0.000000 0.000000 0.000000 0.000000 0.000000 0.000000 0.000000 0.000000 0.000000 0.000000 0.000000 0.000000 0.000000 0.000000 0.000000 0.000000 0.000000 0.000000 0.000000 0.000000 0.000000 0.000000 0.000000 0.000000 0.000000 0.000000 0.000000 0.000000 0.000000 0.000000 0.000000 0.000000 0.000000 0.000000 0.000000 0.000000 0.000000 0.000000 0.000000 
20.110023 23.009954 11.627481 120.994507 0.003502 149.992432 1.560901 -0.112044 15.770962 49.622974 -0.466652 4.472467 13.993475 0.000000 0.000000 -0.159115 -0.099664 0.000138 -9.277740 -31.934065 -7.139479 -35.402439 0.958282 54.818130 -9.343529 2.042631 35.868256 8.712865 -6.108366 -17.021893 26.385874 -23.231346 -0.109001 75.000061 21.998859 -31.001846 27.699986 37.177650 12.399839 23.998844 5.998414 -35.002571 -71.679932 38.162197 5.408562 19.510784 2.927392 0.260262 0.000000 0.000000 0.000000 -72.809334 -53.696259 2.025669 97.983940 -20.086103 27.968695 11.901846 1.315318 -23.622967 
20.116365 23.026310 11.631153 120.994507 0.003502 149.992432 2.276829 -0.112450 15.769737 47.862244 -0.465492 4.468841 13.604197 0.000000 0.000000 -0.547738 -0.099675 -0.000009 -8.489738 -33.909584 -6.382181 -33.398514 0.911976 54.829418 -8.888914 1.890949 35.847229 8.658366 -6.607888 -16.605160 26.951025 -22.279942 0.851790 74.722221 22.003153 -31.112936 27.408783 36.970272 12.568930 24.065710 4.619418 -34.935833 -71.679932 38.162197 5.408564 19.510784 2.927392 0.260262 0.000000 0.000000 0.000000 -74.090912 -53.399742 2.959745 98.163582 -19.843977 27.879128 11.901847 1.315318 -23.622967 
20.122705 23.042664 11.634824 120.994507 0.003504 149.992432 2.993206 -0.112842 15.768508 46.094707 -0.464440 4.465166 13.214846 0.000000 0.000000 -0.936433 -0.099688 -0.000157 -7.647480 -35.882633 -5.570173 -31.384531 0.865068 54.839127 -8.434265 1.739064 35.827408 8.600117 -7.107258 -16.187292 27.496349 -21.317951 1.798067 74.444313 22.006945 -31.224060 27.119095 36.762184 12.736267 24.131008 3.237095 -34.870655 -71.679947 38.162201 5.408560 19.510784 2.927392 0.260262 0.000000 0.000000 0.000000 -75.356255 -53.090691 3.876711 98.342567 -19.601564 27.790491 11.901846 1.315318 -23.622967 
20.129047 23.059017 11.638495 120.994507 0.003502 149.992432 3.709978 -0.113218 15.767277 44.321182 -0.463498 4.461448 12.825437 0.000000 0.000000 -1.325191 -0.099701 -0.000305 -6.745367 -37.850723 -4.697866 -29.361687 0.817639 54.847218 -7.979593 1.586988 35.808792 8.538103 -7.606418 -15.768257 28.022137 -20.345984 2.730209 74.166397 22.010244 -31.335218 26.830917 36.553402 12.901854 24.194794 1.851842 -34.806999 -71.679932 38.162197 5.408564 19.510784 2.927392 0.260262 0.000000 0.000000 0.000000 -76.604973 -52.769432 4.776164 98.520889 -19.358860 27.702778 11.901847 1.315318 -23.622967 
20.135387 23.075373 11.642166 120.994507 0.003503 149.992432 4.427084 -0.113579 15.766037 42.542507 -0.462670 4.457694 12.435968 0.000000 0.000000 -1.714003 -0.099715 -0.000452 -5.777081 -39.811211 -3.758950 -27.331165 0.769770 54.853649 -7.524907 1.434737 35.791378 8.472301 -8.105308 -15.348012 28.528666 -19.364635 3.648600 73.888443 22.013039 -31.446396 26.544243 36.343941 13.065705 24.257111 0.464061 -34.744801 -71.679932 38.162197 5.408560 19.510784 2.927392 0.260262 0.000000 0.000000 0.000000 -77.836761 -52.436329 5.657786 98.698563 -19.115887 27.615992 11.901846 1.315318 -23.622965 
20.141729 23.091728 11.645838 120.994507 0.003502 149.992432 5.144473 -0.113924 15.764791 40.759487 -0.461957 4.453904 12.046456 0.000000 0.000000 -2.102859 -0.099730 -0.000599 -4.735470 -41.761284 -2.746283 -25.294205 0.721552 54.858379 -7.070215 1.282326 35.775169 8.402696 -8.603863 -14.926511 29.016226 -18.374510 4.553634 73.610443 22.015329 -31.557592 26.259058 36.133804 13.227827 24.318027 -0.925841 -34.684032 -71.679916 38.162193 5.408565 19.510784 2.927392 0.260262 0.000000 0.000000 0.000000 -79.051323 -52.091690 6.521284 98.875618 -18.872643 27.530119 11.901846 1.315318 -23.622967 
20.148069 23.108082 11.649508 120.994507 0.003502 149.992432 5.862087 -0.114254 15.763544 38.973003 -0.461362 4.450087 11.656905 0.000000 0.000000 -2.491752 -0.099746 -0.000747 -3.612421 -43.697865 -1.651761 -23.252077 0.673070 54.861408 -6.615529 1.129770 35.760174 8.329261 -9.102028 -14.503717 29.485104 -17.376198 5.445705 73.332451 22.017126 -31.668812 25.975357 35.923016 13.388234 24.377575 -2.317456 -34.624615 -71.679932 38.162197 5.408562 19.510784 2.927392 0.260262 0.000000 0.000000 0.000000 -80.248413 -51.735851 7.366434 99.052032 -18.629137 27.445162 11.901846 1.315318 -23.622967 
20.154411 23.124435 11.653180 120.994507 0.003502 149.992432 6.579870 -0.114569 15.762289 37.183887 -0.460885 4.446247 11.267336 0.000000 0.000000 -2.880670 -0.099763 -0.000894 -2.398732 -45.617653 -0.466192 -21.206055 0.624422 54.862698 -6.160858 0.977084 35.746391 8.251980 -9.599737 -14.079589 29.935619 -16.370310 6.325218 73.054451 22.018423 -31.780041 25.693117 35.711575 13.546935 24.435802 -3.710370 -34.566528 -71.679932 38.162197 5.408562 19.510784 2.927392 0.260262 0.000000 0.000000 0.000000 -81.427826 -51.369148 8.193055 99.227837 -18.385378 27.361118 11.901846 1.315318 -23.622967 
20.160751 23.140791 11.656851 120.994507 0.003501 149.992432 7.297765 -0.114868 15.761034 35.393036 -0.460528 4.442392 10.877743 0.000000 0.000000 -3.269608 -0.099781 -0.001041 -1.083951 -47.517090 0.820869 -19.157436 0.575693 54.862267 -5.706211 0.824283 35.733818 8.170834 -10.096934 -13.654087 30.368036 -15.357414 7.192572 72.776421 22.019215 -31.891273 25.412340 35.499500 13.703941 24.492760 -5.104167 -34.509727 -71.679932 38.162197 5.408562 19.510786 2.927392 0.260263 0.000000 0.000000 0.000000 -82.589539 -50.991978 9.001050 99.403015 -18.141371 27.277973 11.901846 1.315318 -23.622967 
